<svg width="110" height="110" viewBox="0 0 110 110" fill="none" xmlns="http://www.w3.org/2000/svg">
<path fill-rule="evenodd" clip-rule="evenodd" d="M69.7872 59.6828C64.5809 58.988 59.5583 57.2776 55.0061 54.6494L74.9188 20.1597L109.583 40.1729C106.968 44.7022 103.482 48.6694 99.3238 51.8482C95.1659 55.0269 90.4174 57.3549 85.3495 58.6991C80.2816 60.0434 74.9935 60.3776 69.7872 59.6828ZM55.0061 54.6494C57.6211 50.1202 59.3139 45.1176 59.9878 39.9274C60.6616 34.7371 60.3035 29.4608 58.9337 24.3998C57.5639 19.3387 55.2093 14.592 52.0044 10.4306C48.7995 6.2692 44.807 2.77466 40.2549 0.146486L20.3422 34.6362L54.9936 54.6422C50.4448 52.0181 45.4214 50.3193 40.2098 49.6426C34.9933 48.9653 29.6904 49.3252 24.6039 50.7018C19.5173 52.0784 14.7466 54.4448 10.5643 57.6658C6.38194 60.8868 2.86982 64.8993 0.228436 69.4743L34.8924 89.4875L54.9959 54.6673C52.3603 59.2375 50.6449 64.2791 49.9476 69.5048C49.2493 74.7373 49.5853 80.052 50.9364 85.1454C52.2875 90.2389 54.6272 95.0112 57.822 99.1901C61.0168 103.369 65.0041 106.873 69.5563 109.501L89.6701 74.6627L55.0061 54.6494Z" fill="url(#paint0_linear_2613_343)"/>
<defs>
<linearGradient id="paint0_linear_2613_343" x1="74.9188" y1="20.1597" x2="34.8924" y2="89.4875" gradientUnits="userSpaceOnUse">
<stop stop-color="#F6502C"/>
<stop offset="1" stop-color="#FF9900"/>
</linearGradient>
</defs>
</svg>
