<svg width="16" height="16" viewBox="0 0 16 16" fill="none" xmlns="http://www.w3.org/2000/svg">
<path d="M16 8.04657C15.9998 6.50864 15.5615 5.00299 14.737 3.70785C13.9126 2.41272 12.7365 1.38234 11.3481 0.738698C9.95962 0.0950597 8.4169 -0.134885 6.90257 0.0760871C5.38823 0.287059 3.96569 0.930112 2.80336 1.92912C1.64104 2.92812 0.787591 4.24125 0.344066 5.71303C-0.0994587 7.18481 -0.11449 8.75362 0.300752 10.2337C0.715994 11.7138 1.54412 13.0433 2.68709 14.0646C3.83006 15.086 5.24001 15.7565 6.75003 15.9968V10.3767H4.71842V8.04657H6.75003V6.27398C6.70641 5.8599 6.75383 5.44123 6.88892 5.04763C7.02401 4.65403 7.24348 4.29512 7.53178 3.99633C7.82007 3.69753 8.17015 3.46615 8.55721 3.31858C8.94427 3.17101 9.35885 3.11085 9.77159 3.14237C10.3716 3.15156 10.9701 3.20503 11.5623 3.30235V5.28051H10.554C10.3821 5.25749 10.2073 5.27368 10.0424 5.32786C9.87759 5.38204 9.72698 5.47284 9.60175 5.59352C9.47652 5.7142 9.37988 5.86167 9.31898 6.02501C9.25809 6.18836 9.23451 6.36339 9.24998 6.53715V8.04657H11.4692L11.1138 10.3767H9.24998V16C11.1322 15.7 12.8462 14.7341 14.0836 13.2761C15.321 11.8181 16.0006 9.96368 16 8.04657Z" fill="white"/>
</svg>
