<svg width="16" height="16" viewBox="0 0 16 16" fill="none" xmlns="http://www.w3.org/2000/svg">
<path fill-rule="evenodd" clip-rule="evenodd" d="M12 0L4 0C1.76 0 0 1.76 0 4L0 12C0 14.24 1.76 16 4 16H12C14.24 16 16 14.24 16 12V4C16 1.76 14.24 0 12 0ZM14.4 12C14.4 13.36 13.36 14.4 12 14.4H4C2.64 14.4 1.6 13.36 1.6 12L1.6 4C1.6 2.64 2.64 1.6 4 1.6L12 1.6C13.36 1.6 14.4 2.64 14.4 4V12ZM8 4C5.76 4 4 5.76 4 8C4 10.24 5.76 12 8 12C10.24 12 12 10.24 12 8C12 5.76 10.24 4 8 4ZM8 10.4C6.64 10.4 5.6 9.36 5.6 8C5.6 6.64 6.64 5.6 8 5.6C9.36 5.6 10.4 6.64 10.4 8C10.4 9.36 9.36 10.4 8 10.4ZM12.8 4C12.8 4.44183 12.4418 4.8 12 4.8C11.5582 4.8 11.2 4.44183 11.2 4C11.2 3.55817 11.5582 3.2 12 3.2C12.4418 3.2 12.8 3.55817 12.8 4Z" fill="white"/>
</svg>
