<svg width="50" height="50" viewBox="0 0 50 50" fill="none" xmlns="http://www.w3.org/2000/svg">
<path d="M21.2188 42H11.375C8.95875 42 7 40.0413 7 37.625V11.375C7 8.95875 8.95875 7 11.375 7H37.625C40.0413 7 42 8.95875 42 11.375V21.2188" stroke="white" stroke-width="1.5" stroke-linecap="round" stroke-linejoin="round"/>
<path d="M35.5 28.6667V27M35.5 28.6667C33.4309 28.6667 31.6194 29.8007 30.6245 31.4958M35.5 28.6667C37.5691 28.6667 39.3797 29.8007 40.3745 31.4958M30.6245 31.4958L29 30.3333M30.6245 31.4958C30.1095 32.3733 29.8132 33.4012 29.8132 34.5C29.8132 35.5988 30.1105 36.6267 30.6255 37.5042M40.3745 31.4958L41.999 30.3333M40.3745 31.4958C40.8895 32.3733 41.1858 33.4012 41.1858 34.5C41.1858 35.5988 40.8905 36.6267 40.3755 37.5042M30.6255 37.5042C31.6205 39.1993 33.4318 40.3333 35.501 40.3333M30.6255 37.5042L29.001 38.6667M40.3755 37.5042C39.3806 39.1993 37.5701 40.3333 35.501 40.3333M40.3755 37.5042L42 38.6667M35.501 40.3333V42" stroke="white" stroke-width="1.5" stroke-linecap="round" stroke-linejoin="round"/>
<path d="M13 15H24" stroke="white" stroke-width="1.5" stroke-linecap="round"/>
<path d="M18 22H13" stroke="white" stroke-width="1.5" stroke-linecap="round"/>
</svg>
