<svg width="50" height="50" viewBox="0 0 50 50" fill="none" xmlns="http://www.w3.org/2000/svg">
<path d="M31.6254 43.5C33.1709 45.6213 35.6745 47 38.5 47C43.1944 47 47 43.1944 47 38.5C47 35.5967 45.5444 33.0334 43.3232 31.5" stroke="white" stroke-width="1.5" stroke-linecap="round" stroke-dasharray="2 2"/>
<path d="M19.2386 35.4997C21.3291 37.658 24.2579 38.9997 27.5 38.9997C33.8513 38.9997 39 33.8509 39 27.4997C39 24.2575 37.6584 21.3288 35.5 19.2383" stroke="white" stroke-width="1.5" stroke-linecap="round" stroke-dasharray="3 3"/>
<path d="M3 17C3 24.732 9.268 31 17 31C24.732 31 31 24.732 31 17C31 9.268 24.732 3 17 3C9.268 3 3 9.268 3 17Z" stroke="white" stroke-width="1.5"/>
</svg>
