<svg width="50" height="50" viewBox="0 0 50 50" fill="none" xmlns="http://www.w3.org/2000/svg">
<path d="M21.4375 44H10.75C8.12665 44 6 41.8734 6 39.25V10.75C6 8.12665 8.12665 6 10.75 6H39.25C41.8734 6 44 8.12665 44 10.75V21.4375" stroke="white" stroke-linecap="round" stroke-linejoin="round"/>
<path d="M18 44H39.25C41.8734 44 44 41.8734 44 39.25V10.75C44 8.12665 41.8734 6 39.25 6H10.75C8.12657 6 6 8.12665 6 10.75V21.4375" stroke="white" stroke-linecap="round" stroke-linejoin="round"/>
<path d="M13 25.3333H18.2083L22.375 17L28.625 33.6667L32.7917 25.3333H38" stroke="white" stroke-linecap="round" stroke-linejoin="round"/>
</svg>
