<svg width="50" height="50" viewBox="0 0 50 50" fill="none" xmlns="http://www.w3.org/2000/svg">
<path d="M8.10642 41.893C5.20801 38.9945 5.20801 34.3295 5.20801 24.9997C5.20801 15.6698 5.20801 11.0049 8.10642 8.10642C11.0049 5.20801 15.6698 5.20801 24.9997 5.20801C34.3295 5.20801 38.9945 5.20801 41.893 8.10642C44.7913 11.0049 44.7913 15.6698 44.7913 24.9997C44.7913 34.3295 44.7913 38.9945 41.893 41.893C38.9945 44.7913 34.3295 44.7913 24.9997 44.7913C15.6698 44.7913 11.0049 44.7913 8.10642 41.893Z" stroke="white" stroke-width="1.5" stroke-linecap="round" stroke-linejoin="round"/>
<path d="M5.20801 18.75H44.7913" stroke="white" stroke-width="1.5"/>
<path d="M5.20801 27.083H44.7913" stroke="white" stroke-width="1.5"/>
<path d="M5.20801 35.417H44.7913" stroke="white" stroke-width="1.5"/>
<path d="M25 44.7917V18.75" stroke="white" stroke-width="1.5" stroke-linecap="round"/>
</svg>
