<svg width="50" height="50" viewBox="0 0 50 50" fill="none" xmlns="http://www.w3.org/2000/svg">
<path d="M30.1103 26.8642C29.7947 28.1698 28.3032 29.0925 25.3203 30.9379C22.4365 32.7217 20.9949 33.6137 19.8329 33.2552C19.3525 33.1069 18.9148 32.8254 18.5618 32.4375C17.708 31.4996 17.708 29.6802 17.708 26.0417C17.708 22.4031 17.708 20.5837 18.5618 19.6457C18.9148 19.2579 19.3525 18.9764 19.8329 18.8282C20.9949 18.4697 22.4365 19.3616 25.3203 21.1454C28.3032 22.9908 29.7947 23.9135 30.1103 25.2192C30.2405 25.7581 30.2405 26.3252 30.1103 26.8642Z" stroke="white" stroke-width="1.5" stroke-linejoin="round"/>
<path d="M43.7455 22.9167C43.7503 23.896 43.7503 24.936 43.7503 26.0417C43.7503 35.3715 43.7503 40.0365 40.852 42.935C37.9535 45.8333 33.2884 45.8333 23.9587 45.8333C14.6288 45.8333 9.96385 45.8333 7.06541 42.935C4.16699 40.0365 4.16699 35.3715 4.16699 26.0417C4.16699 16.7118 4.16699 12.0469 7.06541 9.14842C9.96385 6.25 14.6288 6.25 23.9587 6.25C25.0643 6.25 26.1043 6.25 27.0837 6.25481" stroke="white" stroke-width="1.5" stroke-linecap="round"/>
<path d="M38.5417 4.16699L39.079 5.61914C39.7835 7.52328 40.1358 8.47537 40.8304 9.16989C41.525 9.86443 42.4771 10.2167 44.3812 10.9213L45.8333 11.4587L44.3812 11.996C42.4771 12.7006 41.525 13.0529 40.8304 13.7474C40.1358 14.4419 39.7835 15.394 39.079 17.2982L38.5417 18.7503L38.0044 17.2982C37.2998 15.394 36.9475 14.4419 36.2529 13.7474C35.5583 13.0529 34.6062 12.7006 32.7021 11.996L31.25 11.4587L32.7021 10.9213C34.6062 10.2167 35.5583 9.86443 36.2529 9.16989C36.9475 8.47537 37.2998 7.52328 38.0044 5.61914L38.5417 4.16699Z" stroke="white" stroke-width="1.5" stroke-linejoin="round"/>
</svg>
