<svg width="50" height="50" viewBox="0 0 50 50" fill="none" xmlns="http://www.w3.org/2000/svg">
<path d="M25 6C15.5719 6 10.8579 6 7.92893 8.70926C5 11.4185 5 15.7791 5 24.5C5 33.2209 5 37.5816 7.92893 40.2907C10.8579 43 15.5719 43 25 43C34.428 43 39.1421 43 42.0712 40.2907C45 37.5816 45 33.2209 45 24.5C45 21.7948 45 19.5094 44.9126 17.5625" stroke="white" stroke-width="1.5" stroke-linecap="round"/>
<path d="M25 6C34.4281 6 39.1421 6 42.0711 8.70926C45 11.4185 45 15.7791 45 24.5C45 33.2209 45 37.5816 42.0711 40.2907C39.1421 43 34.4281 43 25 43C15.572 43 10.8579 43 7.92884 40.2907C5 37.5816 5 33.2209 5 24.5C5 21.7948 5 19.5094 5.08737 17.5625" stroke="white" stroke-width="1.5" stroke-linecap="round"/>
<path d="M25.5 17V33.6667" stroke="white" stroke-width="1.5" stroke-linecap="round" stroke-linejoin="round"/>
<path d="M19.25 21.167V29.5003" stroke="white" stroke-width="1.5" stroke-linecap="round" stroke-linejoin="round"/>
<path d="M13 23.25V27.4167" stroke="white" stroke-width="1.5" stroke-linecap="round" stroke-linejoin="round"/>
<path d="M31.75 21.167V29.5003" stroke="white" stroke-width="1.5" stroke-linecap="round" stroke-linejoin="round"/>
<path d="M38 23.25V27.4167" stroke="white" stroke-width="1.5" stroke-linecap="round" stroke-linejoin="round"/>
</svg>
