<svg width="17" height="17" viewBox="0 0 17 17" fill="none" xmlns="http://www.w3.org/2000/svg">
<path fill-rule="evenodd" clip-rule="evenodd" d="M8.97369 15.4636C10.9789 14.9011 13.0783 14.6174 15.1148 14.3574C15.5534 14.3029 15.9607 14.607 15.992 15.0355C16.0547 15.4643 15.7412 15.8564 15.3339 15.9109C13.36 16.1612 11.3237 16.429 9.41245 16.9705C9.00514 17.0879 8.56632 16.8461 8.441 16.4302C8.31567 16.0146 8.56638 15.5814 8.97369 15.4636Z" fill="white"/>
<path fill-rule="evenodd" clip-rule="evenodd" d="M4.89579 10.4885C8.1229 7.19637 11.7573 4.32801 14.9218 0.947546C15.2037 0.631832 15.705 0.614918 16.0184 0.909647C16.3317 1.20469 16.3629 1.70081 16.0496 2.01653C12.8851 5.4067 9.2507 8.28446 6.02359 11.5863C5.71028 11.8945 5.2091 11.8989 4.89579 11.5957C4.61381 11.2928 4.58248 10.7967 4.89579 10.4885Z" fill="white"/>
<path fill-rule="evenodd" clip-rule="evenodd" d="M1.8486 0.825543C1.75461 2.70981 1.6608 4.59407 1.56681 6.47865C1.56681 6.91025 1.19065 7.2435 0.752012 7.22252C0.313376 7.20122 0.000247359 6.83383 0.000247359 6.40191C0.0942409 4.51452 0.188051 2.62743 0.282045 0.740349C0.313376 0.308748 0.689411 -0.022314 1.12805 0.00117667C1.53535 0.0246673 1.87994 0.394255 1.8486 0.825543Z" fill="white"/>
</svg>
