<svg width="52" height="80" viewBox="0 0 52 80" fill="none" xmlns="http://www.w3.org/2000/svg">
<path d="M36.0482 30.96H49.9878C51.5897 30.96 52.4573 32.8353 51.4206 34.0562L12.8304 79.4954C11.8913 80.601 10.0952 79.7458 10.3612 78.3201L15.8237 49.0402H1.88317C0.281291 49.0402 -0.586367 47.1647 0.450666 45.9439L39.0409 0.504625C39.9798 -0.601002 41.776 0.254156 41.5101 1.67994L36.0482 30.96Z" fill="url(#paint0_linear_2616_358)"/>
<path d="M36.0482 30.96H49.9878C51.5897 30.96 52.4573 32.8353 51.4206 34.0562L12.8304 79.4954C11.8913 80.601 10.0952 79.7458 10.3612 78.3201L15.8237 49.0402H1.88317C0.281291 49.0402 -0.586367 47.1647 0.450666 45.9439L39.0409 0.504625C39.9798 -0.601002 41.776 0.254156 41.5101 1.67994L36.0482 30.96Z" fill="url(#paint1_linear_2616_358)"/>
<path d="M12.378 76.7624L17.8152 47.6175C17.8826 47.2572 17.6058 46.9242 17.2394 46.9242H3.73833C2.18614 46.9242 1.3116 45.1966 2.13801 43.957L0.450666 45.9439C-0.586367 47.1647 0.281291 49.0402 1.88317 49.0402H15.8237L10.3612 78.3201C10.0952 79.7458 11.8913 80.601 12.8304 79.4954L13.7018 78.4693C12.9171 78.4083 12.2015 77.7093 12.378 76.7624Z" fill="url(#paint2_linear_2616_358)"/>
<path d="M33.7317 23.8056C33.7317 25.5879 35.022 27.0658 36.719 27.3645L38.0448 20.257C37.8193 20.2131 37.587 20.1886 37.3489 20.1886C35.3512 20.1882 33.7317 21.8078 33.7317 23.8056ZM49.9878 30.96H42.3126C43.1771 33.7891 45.8079 35.8469 48.92 35.8469C49.2759 35.8469 49.6256 35.8197 49.9672 35.7678L51.4206 34.0562C52.4573 32.8353 51.5897 30.96 49.9878 30.96ZM39.0409 0.504625L31.7751 9.0598C31.9885 13.1604 34.7501 16.5851 38.506 17.784L41.5101 1.67994C41.776 0.254156 39.9798 -0.601002 39.0409 0.504625Z" fill="url(#paint3_linear_2616_358)"/>
<defs>
<linearGradient id="paint0_linear_2616_358" x1="51.7295" y1="21.0526" x2="18.6467" y2="49.0227" gradientUnits="userSpaceOnUse">
<stop stop-color="#FBFFF9"/>
<stop offset="1" stop-color="#0AE448"/>
</linearGradient>
<linearGradient id="paint1_linear_2616_358" x1="51.7295" y1="21.0526" x2="18.6467" y2="49.0227" gradientUnits="userSpaceOnUse">
<stop stop-color="#FBFFF9"/>
<stop offset="1" stop-color="#0AE448"/>
</linearGradient>
<linearGradient id="paint2_linear_2616_358" x1="51.7295" y1="21.0526" x2="18.6467" y2="49.0227" gradientUnits="userSpaceOnUse">
<stop stop-color="#FBFFF9"/>
<stop offset="1" stop-color="#0AE448"/>
</linearGradient>
<linearGradient id="paint3_linear_2616_358" x1="51.7295" y1="21.0526" x2="18.6467" y2="49.0227" gradientUnits="userSpaceOnUse">
<stop stop-color="#FBFFF9"/>
<stop offset="1" stop-color="#0AE448"/>
</linearGradient>
</defs>
</svg>
