<svg width="144" height="150" viewBox="0 0 144 150" fill="none" xmlns="http://www.w3.org/2000/svg">
<mask id="path-1-outside-1_2746_426" maskUnits="userSpaceOnUse" x="0" y="0" width="144" height="150" fill="black">
<rect fill="white" width="144" height="150"/>
<path d="M42.12 147.64C19.16 147.64 2.08 135.6 2.08 111.8C2.08 86.6 21.68 77.64 55.56 68.12C80.48 60.84 95.04 56.92 95.32 37.88C95.6 22.76 85.52 13.52 67.04 13.52C47.44 13.52 28.68 24.72 28.4 52.44H7.12C9.08 19.4 37.64 2.88 69 2.88C96.44 2.88 117.44 14.64 117.44 46.28V110.96C117.44 127.48 122.48 133.64 130.6 133.64C134.8 133.64 138.16 132.52 141.24 129.72L141.52 138.12C136.48 143.16 130.32 146.24 121.36 146.24C106.24 146.24 95.04 135.88 95.04 112.92V107.04C87.48 129.16 70.12 147.64 42.12 147.64ZM23.92 109.28C23.92 125.8 35.12 133.08 48.56 133.08C76 133.08 95.04 108.16 95.04 73.16V58.6C90.84 68.12 78.24 72.04 60.88 77.36C37.08 84.92 23.92 91.08 23.92 109.28Z"/>
</mask>
<path d="M55.56 68.12L56.101 70.0454L56.1109 70.0426L56.1208 70.0398L55.56 68.12ZM95.32 37.88L93.3203 37.843L93.3202 37.8506L95.32 37.88ZM28.4 52.44V54.44H30.3799L30.3999 52.4602L28.4 52.44ZM7.12 52.44L5.12351 52.3216L4.99784 54.44H7.12V52.44ZM141.24 129.72L143.239 129.653L143.095 125.331L139.895 128.24L141.24 129.72ZM141.52 138.12L142.934 139.534L143.548 138.921L143.519 138.053L141.52 138.12ZM95.04 107.04H97.04L93.1475 106.393L95.04 107.04ZM95.04 58.6H97.04L93.2102 57.7927L95.04 58.6ZM60.88 77.36L60.294 75.4478L60.2842 75.4508L60.2745 75.4539L60.88 77.36ZM42.12 145.64C30.9661 145.64 21.4581 142.714 14.7748 137.112C8.14047 131.551 4.08 123.18 4.08 111.8H0.0800006C0.0800006 124.22 4.55953 133.769 12.2052 140.178C19.8019 146.546 30.3139 149.64 42.12 149.64V145.64ZM4.08 111.8C4.08 105.767 5.25057 100.81 7.44471 96.6083C9.63986 92.4046 12.9163 88.8489 17.2839 85.7028C26.0961 79.3554 39.1403 74.8112 56.101 70.0454L55.019 66.1946C38.0997 70.9487 24.4039 75.6446 14.9461 82.4572C10.1787 85.8911 6.43764 89.8954 3.89904 94.7567C1.35943 99.62 0.0800006 105.233 0.0800006 111.8H4.08ZM56.1208 70.0398C68.4544 66.4367 78.6599 63.5584 85.7447 59.103C89.3474 56.8374 92.2387 54.1131 94.2329 50.6014C96.2269 47.0899 97.246 42.9287 97.3198 37.9094L93.3202 37.8506C93.254 42.3513 92.3481 45.8201 90.7546 48.6261C89.1613 51.4319 86.8026 53.7126 83.6153 55.7169C77.1201 59.8016 67.5856 62.5233 54.9992 66.2002L56.1208 70.0398ZM97.3197 37.917C97.4685 29.88 94.8491 23.1821 89.5328 18.5255C84.259 13.9061 76.5879 11.52 67.04 11.52V15.52C75.9721 15.52 82.581 17.7538 86.8972 21.5345C91.1709 25.2779 93.4515 30.76 93.3203 37.843L97.3197 37.917ZM67.04 11.52C56.8819 11.52 46.7836 14.4214 39.1596 21.0785C31.4922 27.7734 26.545 38.0783 26.4001 52.4198L30.3999 52.4602C30.535 39.0817 35.1078 29.9266 41.7905 24.0915C48.5164 18.2186 57.5981 15.52 67.04 15.52V11.52ZM28.4 50.44H7.12V54.44H28.4V50.44ZM9.11649 52.5584C10.0598 36.6567 17.3731 24.8064 28.2149 16.8849C39.1061 8.92718 53.6465 4.88 69 4.88V0.879998C52.9935 0.879998 37.5739 5.09281 25.8551 13.6551C14.0869 22.2535 6.14019 35.1833 5.12351 52.3216L9.11649 52.5584ZM69 4.88C82.4795 4.88 94.0757 7.77503 102.266 14.281C110.375 20.7225 115.44 30.9399 115.44 46.28H119.44C119.44 29.9801 114.005 18.4975 104.754 11.149C95.5843 3.86497 82.9605 0.879998 69 0.879998V4.88ZM115.44 46.28V110.96H119.44V46.28H115.44ZM115.44 110.96C115.44 119.353 116.707 125.48 119.284 129.562C121.967 133.814 125.935 135.64 130.6 135.64V131.64C127.145 131.64 124.533 130.386 122.666 127.428C120.693 124.3 119.44 119.087 119.44 110.96H115.44ZM130.6 135.64C135.229 135.64 139.089 134.378 142.585 131.2L139.895 128.24C137.231 130.662 134.371 131.64 130.6 131.64V135.64ZM139.241 129.787L139.521 138.187L143.519 138.053L143.239 129.653L139.241 129.787ZM140.106 136.706C135.421 141.391 129.762 144.24 121.36 144.24V148.24C130.878 148.24 137.539 144.929 142.934 139.534L140.106 136.706ZM121.36 144.24C114.28 144.24 108.295 141.832 104.047 136.887C99.7672 131.904 97.04 124.098 97.04 112.92H93.04C93.04 124.702 95.9128 133.556 101.013 139.493C106.145 145.468 113.32 148.24 121.36 148.24V144.24ZM97.04 112.92V107.04H93.04V112.92H97.04ZM93.1475 106.393C85.7766 127.96 69.0223 145.64 42.12 145.64V149.64C71.2177 149.64 89.1834 130.36 96.9325 107.687L93.1475 106.393ZM21.92 109.28C21.92 118.025 24.9048 124.563 29.8897 128.886C34.8291 133.169 41.5025 135.08 48.56 135.08V131.08C42.1775 131.08 36.5309 129.351 32.5103 125.864C28.5352 122.417 25.92 117.055 25.92 109.28H21.92ZM48.56 135.08C62.9455 135.08 75.1332 128.525 83.6729 117.467C92.187 106.443 97.04 91.0057 97.04 73.16H93.04C93.04 90.3143 88.373 104.837 80.5071 115.023C72.6668 125.175 61.6145 131.08 48.56 131.08V135.08ZM97.04 73.16V58.6H93.04V73.16H97.04ZM93.2102 57.7927C91.3868 61.9256 87.6802 65.0112 82.0222 67.7555C76.3457 70.5088 69.021 72.7734 60.294 75.4478L61.466 79.2722C70.099 76.6266 77.7543 74.2712 83.7678 71.3545C89.7998 68.4288 94.4932 64.7944 96.8698 59.4073L93.2102 57.7927ZM60.2745 75.4539C48.4135 79.2215 38.8454 82.7379 32.2651 87.7375C28.9332 90.269 26.3213 93.2109 24.5545 96.7927C22.7887 100.372 21.92 104.484 21.92 109.28H25.92C25.92 104.976 26.6963 101.493 28.1418 98.5623C29.5862 95.6341 31.7518 93.151 34.6849 90.9225C40.6346 86.4021 49.5465 83.0585 61.4855 79.2661L60.2745 75.4539Z" fill="white" mask="url(#path-1-outside-1_2746_426)"/>
</svg>
