<svg width="203" height="247" viewBox="0 0 203 247" fill="none" xmlns="http://www.w3.org/2000/svg">
<mask id="path-1-outside-1_4012_32" maskUnits="userSpaceOnUse" x="0" y="31" width="203" height="216" fill="black">
<rect fill="white" y="31" width="203" height="216"/>
<path d="M2.84 244.16C12.64 238 19.92 230.16 25.8 213.64L85.72 50.96C88.52 43.68 87.96 38.36 86.28 33.04H112.04L179.8 214.48C185.4 229.88 190.44 238.28 200.24 244.16V245H146.76V244.16C157.12 238.28 157.96 229.6 152.92 214.76L139.48 176.96H54.64L41.2 214.2C35.32 230.44 36.16 238.56 45.4 244.16V245H2.84V244.16ZM58.56 165.76H135.56L97.2 57.12L58.56 165.76Z"/>
</mask>
<path d="M2.84 244.16L1.77566 242.467L0.84 243.055V244.16H2.84ZM25.8 213.64L23.9233 212.949L23.9195 212.959L23.9158 212.969L25.8 213.64ZM85.72 50.96L83.8533 50.242L83.8482 50.2553L83.8433 50.2687L85.72 50.96ZM86.28 33.04V31.04H83.5511L84.3728 33.6423L86.28 33.04ZM112.04 33.04L113.914 32.3403L113.428 31.04H112.04V33.04ZM179.8 214.48L181.68 213.797L181.677 213.788L181.674 213.78L179.8 214.48ZM200.24 244.16H202.24V243.028L201.269 242.445L200.24 244.16ZM200.24 245V247H202.24V245H200.24ZM146.76 245H144.76V247H146.76V245ZM146.76 244.16L145.773 242.421L144.76 242.995V244.16H146.76ZM152.92 214.76L154.814 214.117L154.809 214.103L154.804 214.09L152.92 214.76ZM139.48 176.96L141.364 176.29L140.892 174.96H139.48V176.96ZM54.64 176.96V174.96H53.2355L52.7588 176.281L54.64 176.96ZM41.2 214.2L43.0805 214.881L43.0812 214.879L41.2 214.2ZM45.4 244.16H47.4V243.033L46.4366 242.45L45.4 244.16ZM45.4 245V247H47.4V245H45.4ZM2.84 245H0.84V247H2.84V245ZM58.56 165.76L56.6756 165.09L55.7259 167.76H58.56V165.76ZM135.56 165.76V167.76H138.387L137.446 165.094L135.56 165.76ZM97.2 57.12L99.0859 56.4541L97.2069 51.1325L95.3156 56.4498L97.2 57.12ZM3.90434 245.853C14.1041 239.442 21.6614 231.232 27.6842 214.311L23.9158 212.969C18.1786 229.088 11.1759 236.558 1.77566 242.467L3.90434 245.853ZM27.6767 214.331L87.5967 51.6513L83.8433 50.2687L23.9233 212.949L27.6767 214.331ZM87.5867 51.678C90.579 43.8979 89.9764 38.1035 88.1872 32.4377L84.3728 33.6423C85.9436 38.6165 86.461 43.4621 83.8533 50.242L87.5867 51.678ZM86.28 35.04H112.04V31.04H86.28V35.04ZM110.166 33.7397L177.926 215.18L181.674 213.78L113.914 32.3403L110.166 33.7397ZM177.92 215.163C183.567 230.692 188.81 239.634 199.211 245.875L201.269 242.445C192.07 236.926 187.233 229.068 181.68 213.797L177.92 215.163ZM198.24 244.16V245H202.24V244.16H198.24ZM200.24 243H146.76V247H200.24V243ZM148.76 245V244.16H144.76V245H148.76ZM147.747 245.899C153.326 242.733 156.578 238.642 157.582 233.182C158.553 227.898 157.359 221.611 154.814 214.117L151.026 215.403C153.521 222.749 154.427 228.222 153.648 232.458C152.902 236.518 150.554 239.707 145.773 242.421L147.747 245.899ZM154.804 214.09L141.364 176.29L137.596 177.63L151.036 215.43L154.804 214.09ZM139.48 174.96H54.64V178.96H139.48V174.96ZM52.7588 176.281L39.3188 213.521L43.0812 214.879L56.5212 177.639L52.7588 176.281ZM39.3195 213.519C36.3603 221.692 34.9505 228.168 35.6473 233.432C36.3721 238.909 39.333 242.822 44.3634 245.87L46.4366 242.45C42.227 239.898 40.1479 236.951 39.6127 232.908C39.0495 228.652 40.1597 222.948 43.0805 214.881L39.3195 213.519ZM43.4 244.16V245H47.4V244.16H43.4ZM45.4 243H2.84V247H45.4V243ZM4.84 245V244.16H0.84V245H4.84ZM58.56 167.76H135.56V163.76H58.56V167.76ZM137.446 165.094L99.0859 56.4541L95.3141 57.7859L133.674 166.426L137.446 165.094ZM95.3156 56.4498L56.6756 165.09L60.4444 166.43L99.0844 57.7902L95.3156 56.4498Z" fill="white" mask="url(#path-1-outside-1_4012_32)"/>
<line y1="-1" x2="120" y2="-1" transform="matrix(-0.866025 0.5 0.5 0.866025 149.903 34.1963)" stroke="#F6502C" stroke-width="2"/>
<rect width="5.90462" height="5.90462" rx="2.95231" transform="matrix(-0.5 -0.866025 -0.866025 0.5 150.903 35.9287)" fill="#F6502C"/>
<rect width="5.96413" height="5.96413" rx="2.98207" transform="matrix(-0.5 -0.866025 -0.866025 0.5 52.1455 92.9463)" fill="#F6502C"/>
<rect x="95" y="54.9971" width="12" height="12" rx="6" transform="rotate(30 95 54.9971)" fill="#F6502C"/>
</svg>
