<svg width="154" height="219" viewBox="0 0 154 219" fill="none" xmlns="http://www.w3.org/2000/svg">
<mask id="path-1-outside-1_2746_421" maskUnits="userSpaceOnUse" x="9" y="69" width="137" height="150" fill="black">
<rect fill="white" x="9" y="69" width="137" height="150"/>
<path d="M77.84 216.76C38.64 216.76 11.2 189.04 11.2 144.24C11.2 99.72 40.32 71.16 78.68 71.16C116.76 71.16 141.4 96.64 141.96 133.32H33.6C33.32 135.84 33.32 138.36 33.32 140.88C33.32 174.76 49 202.2 82.04 202.2C109.76 202.2 124.88 183.72 130.48 160.48H142.8C136.92 191.84 115.36 216.76 77.84 216.76ZM35 123.24H119.56C117.6 100.28 103.88 81.8 78.96 81.8C55.44 81.8 39.76 98.32 35 123.24Z"/>
</mask>
<path d="M141.96 133.32V135.32H143.991L143.96 133.289L141.96 133.32ZM33.6 133.32V131.32H31.8099L31.6122 133.099L33.6 133.32ZM130.48 160.48V158.48H128.905L128.536 160.011L130.48 160.48ZM142.8 160.48L144.766 160.849L145.21 158.48H142.8V160.48ZM35 123.24L33.0355 122.865L32.5818 125.24H35V123.24ZM119.56 123.24V125.24H121.738L121.553 123.07L119.56 123.24ZM77.84 214.76C58.7295 214.76 42.6192 208.015 31.2783 195.931C19.9286 183.838 13.2 166.231 13.2 144.24H9.2C9.2 167.049 16.1914 185.702 28.3617 198.669C40.5408 211.645 57.7505 218.76 77.84 218.76V214.76ZM13.2 144.24C13.2 122.424 20.328 104.669 32.0047 92.3828C43.6787 80.0997 60.0131 73.16 78.68 73.16V69.16C58.9869 69.16 41.5813 76.5003 29.1053 89.6272C16.632 102.751 9.2 121.536 9.2 144.24H13.2ZM78.68 73.16C97.2605 73.16 112.41 79.3667 122.978 89.9015C133.55 100.44 139.687 115.458 139.96 133.351L143.96 133.289C143.673 114.502 137.21 98.4398 125.802 87.0685C114.39 75.6932 98.1795 69.16 78.68 69.16V73.16ZM141.96 131.32H33.6V135.32H141.96V131.32ZM31.6122 133.099C31.318 135.747 31.32 138.378 31.32 140.88H35.32C35.32 138.342 35.322 135.933 35.5878 133.541L31.6122 133.099ZM31.32 140.88C31.32 158.093 35.2982 173.879 43.6712 185.42C52.1013 197.038 64.886 204.2 82.04 204.2V200.2C66.154 200.2 54.5787 193.642 46.9088 183.07C39.1818 172.421 35.32 157.547 35.32 140.88H31.32ZM82.04 204.2C96.3851 204.2 107.595 199.402 115.93 191.507C124.23 183.646 129.561 172.832 132.424 160.949L128.536 160.011C125.799 171.368 120.77 181.414 113.18 188.603C105.625 195.758 95.4149 200.2 82.04 200.2V204.2ZM130.48 162.48H142.8V158.48H130.48V162.48ZM140.834 160.111C137.956 175.462 131.262 189.118 120.816 198.922C110.396 208.701 96.1251 214.76 77.84 214.76V218.76C97.0749 218.76 112.344 212.359 123.554 201.838C134.738 191.342 141.764 176.858 144.766 160.849L140.834 160.111ZM35 125.24H119.56V121.24H35V125.24ZM121.553 123.07C120.545 111.26 116.501 100.452 109.352 92.5667C102.167 84.6415 91.9611 79.8 78.96 79.8V83.8C90.8789 83.8 99.9927 88.1984 106.388 95.2533C112.82 102.348 116.615 112.26 117.567 123.41L121.553 123.07ZM78.96 79.8C66.6954 79.8 56.3907 84.1219 48.5511 91.7407C40.7378 99.3339 35.4739 110.099 33.0355 122.865L36.9645 123.615C39.2861 111.461 44.2422 101.506 51.3389 94.6093C58.4093 87.738 67.7046 83.8 78.96 83.8V79.8Z" fill="white" mask="url(#path-1-outside-1_2746_421)"/>
<rect x="31" y="115" width="12" height="12" rx="6" fill="#F6502C"/>
<rect x="112" y="115" width="12" height="12" rx="6" fill="#F6502C"/>
</svg>
