<svg width="50" height="206" viewBox="0 0 50 206" fill="none" xmlns="http://www.w3.org/2000/svg">
<mask id="path-1-outside-1_2746_363" maskUnits="userSpaceOnUse" x="0" y="0" width="50" height="206" fill="black">
<rect fill="white" width="50" height="206"/>
<path d="M2.36 204V203.16C12.44 196.44 13.56 187.76 13.56 168.44V102.92C13.56 82.48 12.44 74.92 2.36 68.2V67.36L20.28 67.08L36.24 66.24V168.44C36.24 187.76 37.36 196.44 47.44 203.16V204H2.36ZM12.44 32.08V2.39999H36.52V32.08H12.44Z"/>
</mask>
<path d="M2.36 204H0.36V206H2.36V204ZM2.36 203.16L1.2506 201.496L0.36 202.09V203.16H2.36ZM2.36 68.2H0.36V69.2704L1.2506 69.8641L2.36 68.2ZM2.36 67.36L2.32875 65.3602L0.36 65.391V67.36H2.36ZM20.28 67.08L20.3112 69.0797L20.3482 69.0792L20.3851 69.0772L20.28 67.08ZM36.24 66.24H38.24V64.132L36.1349 64.2428L36.24 66.24ZM47.44 203.16H49.44V202.09L48.5494 201.496L47.44 203.16ZM47.44 204V206H49.44V204H47.44ZM12.44 32.08H10.44V34.08H12.44V32.08ZM12.44 2.39999V0.399992H10.44V2.39999H12.44ZM36.52 2.39999H38.52V0.399992H36.52V2.39999ZM36.52 32.08V34.08H38.52V32.08H36.52ZM4.36 204V203.16H0.36V204H4.36ZM3.4694 204.824C8.88942 201.211 11.989 196.972 13.664 191.071C15.2915 185.338 15.56 178.064 15.56 168.44H11.56C11.56 178.136 11.2685 184.862 9.81602 189.979C8.41104 194.928 5.91058 198.389 1.2506 201.496L3.4694 204.824ZM15.56 168.44V102.92H11.56V168.44H15.56ZM15.56 102.92C15.56 92.7481 15.2932 85.4597 13.6601 79.8555C11.9699 74.055 8.84267 70.1181 3.4694 66.5359L1.2506 69.8641C5.95733 73.0019 8.43007 76.205 9.81986 80.9745C11.2668 85.9403 11.56 92.6518 11.56 102.92H15.56ZM4.36 68.2V67.36H0.36V68.2H4.36ZM2.39125 69.3597L20.3112 69.0797L20.2488 65.0802L2.32875 65.3602L2.39125 69.3597ZM20.3851 69.0772L36.3451 68.2372L36.1349 64.2428L20.1749 65.0828L20.3851 69.0772ZM34.24 66.24V168.44H38.24V66.24H34.24ZM34.24 168.44C34.24 178.064 34.5085 185.338 36.136 191.071C37.811 196.972 40.9106 201.211 46.3306 204.824L48.5494 201.496C43.8894 198.389 41.389 194.928 39.984 189.979C38.5315 184.862 38.24 178.136 38.24 168.44H34.24ZM45.44 203.16V204H49.44V203.16H45.44ZM47.44 202H2.36V206H47.44V202ZM14.44 32.08V2.39999H10.44V32.08H14.44ZM12.44 4.39999H36.52V0.399992H12.44V4.39999ZM34.52 2.39999V32.08H38.52V2.39999H34.52ZM36.52 30.08H12.44V34.08H36.52V30.08Z" fill="white" mask="url(#path-1-outside-1_2746_363)"/>
</svg>
