<svg width="253" height="212" viewBox="0 0 253 212" fill="none" xmlns="http://www.w3.org/2000/svg">
<path d="M12.04 212V211.16C21.84 204.44 22.96 195.76 22.96 176.44V111.2C22.96 90.76 21.84 83.2 12.04 76.48V75.64H49.84C46.48 82.08 45.64 89.36 45.36 106.72C53.48 87.4 70.28 71.16 96.88 71.16C119.28 71.16 134.12 82.08 137.48 108.4C145.32 88.52 162.4 71.16 189.84 71.16C215.6 71.16 231.28 85.72 231.28 121.56V176.44C231.28 195.76 232.68 204.44 241.92 211.16V212H198.8V211.16C208.04 204.44 208.88 195.76 208.88 176.44V122.96C208.88 96.64 199.36 85.16 180.04 85.16C157.36 85.16 142.8 102.8 138.32 123.24V176.44C138.32 195.76 139.72 204.44 148.96 211.16V212H105.84V211.16C115.08 204.44 116.2 195.76 116.2 176.44V122.96C116.2 96.64 106.4 85.16 87.08 85.16C64.4 85.16 49.84 102.8 45.36 123.24V176.44C45.36 195.76 46.76 204.44 56 211.16V212H12.04Z" fill="white"/>
<g filter="url(#filter0_b_4012_35)">
<mask id="path-2-inside-1_4012_35" fill="white">
<path fill-rule="evenodd" clip-rule="evenodd" d="M107.5 16C97.835 16 90 23.835 90 33.5C90 43.165 97.835 51 107.5 51H132.759L137.922 59.9802C138.555 61.0802 140.142 61.0802 140.775 59.9802L145.938 51H171.5C181.165 51 189 43.165 189 33.5C189 23.835 181.165 16 171.5 16H107.5Z"/>
</mask>
<path fill-rule="evenodd" clip-rule="evenodd" d="M107.5 16C97.835 16 90 23.835 90 33.5C90 43.165 97.835 51 107.5 51H132.759L137.922 59.9802C138.555 61.0802 140.142 61.0802 140.775 59.9802L145.938 51H171.5C181.165 51 189 43.165 189 33.5C189 23.835 181.165 16 171.5 16H107.5Z" fill="white" fill-opacity="0.08"/>
<path d="M132.759 51L133.472 50.59L133.235 50.1775H132.759V51ZM137.922 59.9802L137.209 60.3902L137.209 60.3902L137.922 59.9802ZM140.775 59.9802L141.488 60.3902L141.488 60.3902L140.775 59.9802ZM145.938 51V50.1775H145.462L145.225 50.59L145.938 51ZM90.8225 33.5C90.8225 24.2893 98.2893 16.8225 107.5 16.8225V15.1775C97.3807 15.1775 89.1775 23.3807 89.1775 33.5H90.8225ZM107.5 50.1775C98.2893 50.1775 90.8225 42.7107 90.8225 33.5H89.1775C89.1775 43.6193 97.3807 51.8225 107.5 51.8225V50.1775ZM132.759 50.1775H107.5V51.8225H132.759V50.1775ZM138.635 59.5702L133.472 50.59L132.046 51.41L137.209 60.3902L138.635 59.5702ZM140.061 59.5702C139.745 60.1202 138.952 60.1202 138.635 59.5702L137.209 60.3902C138.158 62.0403 140.539 62.0403 141.488 60.3902L140.061 59.5702ZM145.225 50.59L140.061 59.5702L141.488 60.3902L146.651 51.41L145.225 50.59ZM171.5 50.1775H145.938V51.8225H171.5V50.1775ZM188.177 33.5C188.177 42.7107 180.711 50.1775 171.5 50.1775V51.8225C181.619 51.8225 189.823 43.6193 189.823 33.5H188.177ZM171.5 16.8225C180.711 16.8225 188.177 24.2893 188.177 33.5H189.823C189.823 23.3807 181.619 15.1775 171.5 15.1775V16.8225ZM107.5 16.8225H171.5V15.1775H107.5V16.8225Z" fill="white" fill-opacity="0.09" mask="url(#path-2-inside-1_4012_35)"/>
</g>
<circle cx="109.5" cy="33.5" r="7.5" fill="#FF5F57"/>
<circle cx="129.5" cy="33.5" r="7.5" fill="#FDBC2E"/>
<circle cx="169.5" cy="33.5" r="7.5" fill="#027AFF"/>
<circle cx="149.5" cy="33.5" r="7" fill="white" stroke="white"/>
<defs>
<filter id="filter0_b_4012_35" x="85.0647" y="11.0647" width="108.871" height="54.6757" filterUnits="userSpaceOnUse" color-interpolation-filters="sRGB">
<feFlood flood-opacity="0" result="BackgroundImageFix"/>
<feGaussianBlur in="BackgroundImageFix" stdDeviation="2.46764"/>
<feComposite in2="SourceAlpha" operator="in" result="effect1_backgroundBlur_4012_35"/>
<feBlend mode="normal" in="SourceGraphic" in2="effect1_backgroundBlur_4012_35" result="shape"/>
</filter>
</defs>
</svg>
