<svg width="163" height="193" viewBox="0 0 163 193" fill="none" xmlns="http://www.w3.org/2000/svg">
<mask id="mask0_2746_404" style="mask-type:alpha" maskUnits="userSpaceOnUse" x="0" y="0" width="163" height="193">
<rect width="163" height="193" fill="#D9D9D9"/>
</mask>
<g mask="url(#mask0_2746_404)">
<mask id="path-2-outside-1_2746_404" maskUnits="userSpaceOnUse" x="10" y="33.9253" width="144" height="145" fill="black">
<rect fill="white" x="10" y="33.9253" width="144" height="145"/>
<path d="M12.04 176.925V176.085C22.12 169.365 23.24 160.685 23.24 141.365V76.1253C23.24 55.6853 22.12 48.1253 12.04 41.4053V40.5653H50.4C47.04 47.0053 46.2 54.5653 45.92 71.6453C54.32 52.3253 71.4 36.0853 98.56 36.0853C124.88 36.0853 140.84 50.6453 140.84 86.4853V141.365C140.84 160.685 142.24 169.365 151.76 176.085V176.925H107.8V176.085C117.04 169.365 118.16 160.685 118.16 141.365V87.8853C118.16 61.5653 108.36 50.0853 88.48 50.0853C65.52 50.0853 50.68 67.7253 45.92 88.4453V141.365C45.92 160.685 47.32 169.365 56.84 176.085V176.925H12.04Z"/>
</mask>
<path d="M12.04 176.925H10.04V178.925H12.04V176.925ZM12.04 176.085L10.9306 174.421L10.04 175.015V176.085H12.04ZM12.04 41.4053H10.04V42.4757L10.9306 43.0694L12.04 41.4053ZM12.04 40.5653V38.5653H10.04V40.5653H12.04ZM50.4 40.5653L52.1732 41.4904L53.6993 38.5653H50.4V40.5653ZM45.92 71.6453L43.9203 71.6125L47.7541 72.4427L45.92 71.6453ZM151.76 176.085H153.76V175.049L152.913 174.451L151.76 176.085ZM151.76 176.925V178.925H153.76V176.925H151.76ZM107.8 176.925H105.8V178.925H107.8V176.925ZM107.8 176.085L106.624 174.468L105.8 175.067V176.085H107.8ZM45.92 88.4453L43.9708 87.9975L43.92 88.2185V88.4453H45.92ZM56.84 176.085H58.84V175.049L57.9934 174.451L56.84 176.085ZM56.84 176.925V178.925H58.84V176.925H56.84ZM14.04 176.925V176.085H10.04V176.925H14.04ZM13.1494 177.749C18.5694 174.136 21.669 169.897 23.344 163.996C24.9715 158.263 25.24 150.989 25.24 141.365H21.24C21.24 151.061 20.9485 157.787 19.496 162.904C18.091 167.853 15.5906 171.315 10.9306 174.421L13.1494 177.749ZM25.24 141.365V76.1253H21.24V141.365H25.24ZM25.24 76.1253C25.24 65.9534 24.9732 58.665 23.3401 53.0608C21.6499 47.2603 18.5227 43.3234 13.1494 39.7412L10.9306 43.0694C15.6373 46.2072 18.1101 49.4103 19.4999 54.1798C20.9468 59.1456 21.24 65.8571 21.24 76.1253H25.24ZM14.04 41.4053V40.5653H10.04V41.4053H14.04ZM12.04 42.5653H50.4V38.5653H12.04V42.5653ZM48.6268 39.6402C45.015 46.5629 44.1992 54.5996 43.9203 71.6125L47.9197 71.6781C48.2008 54.531 49.065 47.4477 52.1732 41.4904L48.6268 39.6402ZM47.7541 72.4427C55.9145 53.6739 72.3748 38.0853 98.56 38.0853V34.0853C70.4252 34.0853 52.7255 50.9767 44.0859 70.8478L47.7541 72.4427ZM98.56 38.0853C111.356 38.0853 121.298 41.6149 128.081 49.1804C134.902 56.7881 138.84 68.8197 138.84 86.4853H142.84C142.84 68.3109 138.798 55.1425 131.059 46.5102C123.282 37.8357 112.084 34.0853 98.56 34.0853V38.0853ZM138.84 86.4853V141.365H142.84V86.4853H138.84ZM138.84 141.365C138.84 151.008 139.18 158.27 140.806 163.996C142.473 169.87 145.481 174.101 150.607 177.719L152.913 174.451C148.519 171.35 146.067 167.88 144.654 162.904C143.2 157.781 142.84 151.042 142.84 141.365H138.84ZM149.76 176.085V176.925H153.76V176.085H149.76ZM151.76 174.925H107.8V178.925H151.76V174.925ZM109.8 176.925V176.085H105.8V176.925H109.8ZM108.976 177.703C113.973 174.069 116.827 169.826 118.379 163.962C119.89 158.249 120.16 150.996 120.16 141.365H116.16C116.16 151.054 115.87 157.802 114.512 162.939C113.193 167.925 110.867 171.382 106.624 174.468L108.976 177.703ZM120.16 141.365V87.8853H116.16V141.365H120.16ZM120.16 87.8853C120.16 74.5427 117.688 64.5456 112.336 57.8648C106.906 51.0877 98.816 48.0853 88.48 48.0853V52.0853C98.024 52.0853 104.774 54.8229 109.214 60.3658C113.732 66.005 116.16 74.9079 116.16 87.8853H120.16ZM88.48 48.0853C64.2674 48.0853 48.858 66.7237 43.9708 87.9975L47.8692 88.8931C52.502 68.7269 66.7726 52.0853 88.48 52.0853V48.0853ZM43.92 88.4453V141.365H47.92V88.4453H43.92ZM43.92 141.365C43.92 151.008 44.2604 158.27 45.886 163.996C47.5535 169.87 50.5605 174.101 55.6866 177.719L57.9934 174.451C53.5995 171.35 51.1465 167.88 49.734 162.904C48.2796 157.781 47.92 151.042 47.92 141.365H43.92ZM54.84 176.085V176.925H58.84V176.085H54.84ZM56.84 174.925H12.04V178.925H56.84V174.925Z" fill="white" mask="url(#path-2-outside-1_2746_404)"/>
</g>
</svg>
