<svg width="163" height="135" viewBox="0 0 163 135" fill="none" xmlns="http://www.w3.org/2000/svg">
<mask id="mask0_2746_407" style="mask-type:alpha" maskUnits="userSpaceOnUse" x="0" y="0" width="163" height="135">
<rect width="163" height="135" fill="#D9D9D9"/>
</mask>
<g mask="url(#mask0_2746_407)">
<mask id="path-2-outside-1_2746_407" maskUnits="userSpaceOnUse" x="12" y="7.04834" width="144" height="145" fill="black">
<rect fill="white" x="12" y="7.04834" width="144" height="145"/>
<path d="M14.04 150.048V149.208C24.12 142.488 25.24 133.808 25.24 114.488V49.2483C25.24 28.8083 24.12 21.2483 14.04 14.5283V13.6883H52.4C49.04 20.1283 48.2 27.6883 47.92 44.7683C56.32 25.4483 73.4 9.20833 100.56 9.20833C126.88 9.20833 142.84 23.7683 142.84 59.6083V114.488C142.84 133.808 144.24 142.488 153.76 149.208V150.048H109.8V149.208C119.04 142.488 120.16 133.808 120.16 114.488V61.0083C120.16 34.6883 110.36 23.2083 90.48 23.2083C67.52 23.2083 52.68 40.8483 47.92 61.5683V114.488C47.92 133.808 49.32 142.488 58.84 149.208V150.048H14.04Z"/>
</mask>
<path d="M14.04 150.048H12.04V152.048H14.04V150.048ZM14.04 149.208L12.9306 147.544L12.04 148.138V149.208H14.04ZM14.04 14.5283H12.04V15.5987L12.9306 16.1924L14.04 14.5283ZM14.04 13.6883V11.6883H12.04V13.6883H14.04ZM52.4 13.6883L54.1732 14.6135L55.6993 11.6883H52.4V13.6883ZM47.92 44.7683L45.9203 44.7356L49.7541 45.5658L47.92 44.7683ZM153.76 149.208H155.76V148.172L154.913 147.574L153.76 149.208ZM153.76 150.048V152.048H155.76V150.048H153.76ZM109.8 150.048H107.8V152.048H109.8V150.048ZM109.8 149.208L108.624 147.591L107.8 148.19V149.208H109.8ZM47.92 61.5683L45.9708 61.1205L45.92 61.3416V61.5683H47.92ZM58.84 149.208H60.84V148.172L59.9934 147.574L58.84 149.208ZM58.84 150.048V152.048H60.84V150.048H58.84ZM16.04 150.048V149.208H12.04V150.048H16.04ZM15.1494 150.872C20.5694 147.259 23.669 143.02 25.344 137.12C26.9715 131.386 27.24 124.112 27.24 114.488H23.24C23.24 124.184 22.9485 130.91 21.496 136.027C20.091 140.977 17.5906 144.438 12.9306 147.544L15.1494 150.872ZM27.24 114.488V49.2483H23.24V114.488H27.24ZM27.24 49.2483C27.24 39.0765 26.9732 31.788 25.3401 26.1838C23.6499 20.3833 20.5227 16.4464 15.1494 12.8642L12.9306 16.1924C17.6373 19.3303 20.1101 22.5333 21.4999 27.3028C22.9468 32.2686 23.24 38.9802 23.24 49.2483H27.24ZM16.04 14.5283V13.6883H12.04V14.5283H16.04ZM14.04 15.6883H52.4V11.6883H14.04V15.6883ZM50.6268 12.7632C47.015 19.6859 46.1992 27.7226 45.9203 44.7356L49.9197 44.8011C50.2008 27.6541 51.065 20.5707 54.1732 14.6135L50.6268 12.7632ZM49.7541 45.5658C57.9145 26.7969 74.3748 11.2083 100.56 11.2083V7.20833C72.4252 7.20833 54.7255 24.0998 46.0859 43.9709L49.7541 45.5658ZM100.56 11.2083C113.356 11.2083 123.298 14.738 130.081 22.3034C136.902 29.9111 140.84 41.9428 140.84 59.6083H144.84C144.84 41.4339 140.798 28.2655 133.059 19.6332C125.282 10.9587 114.084 7.20833 100.56 7.20833V11.2083ZM140.84 59.6083V114.488H144.84V59.6083H140.84ZM140.84 114.488C140.84 124.131 141.18 131.393 142.806 137.12C144.473 142.993 147.481 147.224 152.607 150.842L154.913 147.574C150.519 144.473 148.067 141.003 146.654 136.027C145.2 130.904 144.84 124.165 144.84 114.488H140.84ZM151.76 149.208V150.048H155.76V149.208H151.76ZM153.76 148.048H109.8V152.048H153.76V148.048ZM111.8 150.048V149.208H107.8V150.048H111.8ZM110.976 150.826C115.973 147.192 118.827 142.949 120.379 137.085C121.89 131.372 122.16 124.119 122.16 114.488H118.16C118.16 124.177 117.87 130.925 116.512 136.062C115.193 141.048 112.867 144.505 108.624 147.591L110.976 150.826ZM122.16 114.488V61.0083H118.16V114.488H122.16ZM122.16 61.0083C122.16 47.6657 119.688 37.6687 114.336 30.9879C108.906 24.2108 100.816 21.2083 90.48 21.2083V25.2083C100.024 25.2083 106.774 27.9459 111.214 33.4888C115.732 39.128 118.16 48.031 118.16 61.0083H122.16ZM90.48 21.2083C66.2674 21.2083 50.858 39.8468 45.9708 61.1205L49.8692 62.0161C54.502 41.8499 68.7726 25.2083 90.48 25.2083V21.2083ZM45.92 61.5683V114.488H49.92V61.5683H45.92ZM45.92 114.488C45.92 124.131 46.2604 131.393 47.886 137.12C49.5535 142.993 52.5605 147.224 57.6866 150.842L59.9934 147.574C55.5995 144.473 53.1465 141.003 51.734 136.027C50.2796 130.904 49.92 124.165 49.92 114.488H45.92ZM56.84 149.208V150.048H60.84V149.208H56.84ZM58.84 148.048H14.04V152.048H58.84V148.048Z" fill="white" mask="url(#path-2-outside-1_2746_407)"/>
</g>
</svg>
