<svg width="111" height="201" viewBox="0 0 111 201" fill="none" xmlns="http://www.w3.org/2000/svg">
<mask id="path-1-outside-1_4013_36" maskUnits="userSpaceOnUse" x="0" y="0" width="111" height="201" fill="black">
<rect fill="white" width="111" height="201"/>
<path d="M68.76 198.52C48.32 198.52 31.52 188.44 31.52 153.44V70.56H2.12V59.64H31.52V19.6L53.08 2.23999H53.92V59.64H100.12V70.56H53.92V153.16C53.92 177.8 63.72 183.96 76.6 183.96C88.92 183.96 99 176.68 105.72 162.96L108.52 171.36C101.24 188.44 86.68 198.52 68.76 198.52Z"/>
</mask>
<path d="M31.52 70.56H33.52V68.56H31.52V70.56ZM2.12 70.56H0.12V72.56H2.12V70.56ZM2.12 59.64V57.64H0.12V59.64H2.12ZM31.52 59.64V61.64H33.52V59.64H31.52ZM31.52 19.6L30.2657 18.0422L29.52 18.6426V19.6H31.52ZM53.08 2.23999V0.239991H52.3749L51.8257 0.682209L53.08 2.23999ZM53.92 2.23999H55.92V0.239991H53.92V2.23999ZM53.92 59.64H51.92V61.64H53.92V59.64ZM100.12 59.64H102.12V57.64H100.12V59.64ZM100.12 70.56V72.56H102.12V70.56H100.12ZM53.92 70.56V68.56H51.92V70.56H53.92ZM105.72 162.96L107.617 162.328L106.073 157.693L103.924 162.08L105.72 162.96ZM108.52 171.36L110.36 172.144L110.657 171.447L110.417 170.728L108.52 171.36ZM68.76 196.52C58.8438 196.52 50.1455 194.077 43.9036 187.705C37.6524 181.325 33.52 170.653 33.52 153.44H29.52C29.52 171.227 33.7876 183.095 41.0464 190.505C48.3145 197.923 58.2362 200.52 68.76 200.52V196.52ZM33.52 153.44V70.56H29.52V153.44H33.52ZM31.52 68.56H2.12V72.56H31.52V68.56ZM4.12 70.56V59.64H0.12V70.56H4.12ZM2.12 61.64H31.52V57.64H2.12V61.64ZM33.52 59.64V19.6H29.52V59.64H33.52ZM32.7743 21.1578L54.3343 3.79777L51.8257 0.682209L30.2657 18.0422L32.7743 21.1578ZM53.08 4.23999H53.92V0.239991H53.08V4.23999ZM51.92 2.23999V59.64H55.92V2.23999H51.92ZM53.92 61.64H100.12V57.64H53.92V61.64ZM98.12 59.64V70.56H102.12V59.64H98.12ZM100.12 68.56H53.92V72.56H100.12V68.56ZM51.92 70.56V153.16H55.92V70.56H51.92ZM51.92 153.16C51.92 165.678 54.3977 173.965 58.9277 179.12C63.5175 184.343 69.8599 185.96 76.6 185.96V181.96C70.4601 181.96 65.4625 180.497 61.9323 176.48C58.3423 172.395 55.92 165.282 55.92 153.16H51.92ZM76.6 185.96C89.8834 185.96 100.558 178.045 107.516 163.84L103.924 162.08C97.4417 175.315 87.9566 181.96 76.6 181.96V185.96ZM103.823 163.592L106.623 171.992L110.417 170.728L107.617 162.328L103.823 163.592ZM106.68 170.576C99.6928 186.969 85.8248 196.52 68.76 196.52V200.52C87.5352 200.52 102.787 189.911 110.36 172.144L106.68 170.576Z" fill="white" mask="url(#path-1-outside-1_4013_36)"/>
</svg>
