<svg width="110" height="18" viewBox="0 0 110 18" fill="none" xmlns="http://www.w3.org/2000/svg">
<path d="M9.00004 1.3125C9.23329 1.3125 9.44239 1.45651 9.52557 1.67447L11.2941 6.30926L16.1525 6.54685C16.3814 6.55804 16.5806 6.70697 16.6561 6.92333C16.7316 7.1397 16.6683 7.38024 16.4961 7.53142L12.7986 10.7771L14.1576 15.983C14.2169 16.2101 14.1288 16.4504 13.9366 16.5853C13.7444 16.7203 13.4886 16.7217 13.295 16.5887L9.00004 13.6406L4.70506 16.5887C4.51144 16.7217 4.25561 16.7203 4.06343 16.5853C3.87124 16.4504 3.78314 16.2101 3.84247 15.983L5.20142 10.7771L1.50394 7.53142C1.33172 7.38024 1.26843 7.1397 1.34394 6.92333C1.41944 6.70697 1.61866 6.55804 1.84755 6.54685L6.706 6.30926L8.47444 1.67447C8.55762 1.45651 8.76672 1.3125 9.00004 1.3125Z" fill="#FFA030"/>
<path d="M32 1.3125C32.2333 1.3125 32.4424 1.45651 32.5256 1.67447L34.2941 6.30926L39.1525 6.54685C39.3814 6.55804 39.5806 6.70697 39.6561 6.92333C39.7316 7.1397 39.6683 7.38024 39.4961 7.53142L35.7986 10.7771L37.1576 15.983C37.2169 16.2101 37.1288 16.4504 36.9366 16.5853C36.7444 16.7203 36.4886 16.7217 36.295 16.5887L32 13.6406L27.7051 16.5887C27.5114 16.7217 27.2556 16.7203 27.0634 16.5853C26.8712 16.4504 26.7831 16.2101 26.8425 15.983L28.2014 10.7771L24.5039 7.53142C24.3317 7.38024 24.2684 7.1397 24.3439 6.92333C24.4194 6.70697 24.6187 6.55804 24.8475 6.54685L29.706 6.30926L31.4744 1.67447C31.5576 1.45651 31.7667 1.3125 32 1.3125Z" fill="#FFA030"/>
<path d="M55 1.3125C55.2333 1.3125 55.4424 1.45651 55.5256 1.67447L57.2941 6.30926L62.1525 6.54685C62.3814 6.55804 62.5806 6.70697 62.6561 6.92333C62.7316 7.1397 62.6683 7.38024 62.4961 7.53142L58.7986 10.7771L60.1576 15.983C60.2169 16.2101 60.1288 16.4504 59.9366 16.5853C59.7444 16.7203 59.4886 16.7217 59.295 16.5887L55 13.6406L50.7051 16.5887C50.5114 16.7217 50.2556 16.7203 50.0634 16.5853C49.8712 16.4504 49.7831 16.2101 49.8425 15.983L51.2014 10.7771L47.5039 7.53142C47.3317 7.38024 47.2684 7.1397 47.3439 6.92333C47.4194 6.70697 47.6187 6.55804 47.8475 6.54685L52.706 6.30926L54.4744 1.67447C54.5576 1.45651 54.7667 1.3125 55 1.3125Z" fill="#FFA030"/>
<path d="M78 1.3125C78.2333 1.3125 78.4424 1.45651 78.5256 1.67447L80.2941 6.30926L85.1525 6.54685C85.3814 6.55804 85.5806 6.70697 85.6561 6.92333C85.7316 7.1397 85.6683 7.38024 85.4961 7.53142L81.7986 10.7771L83.1576 15.983C83.2169 16.2101 83.1288 16.4504 82.9366 16.5853C82.7444 16.7203 82.4886 16.7217 82.295 16.5887L78 13.6406L73.7051 16.5887C73.5114 16.7217 73.2556 16.7203 73.0634 16.5853C72.8712 16.4504 72.7831 16.2101 72.8425 15.983L74.2014 10.7771L70.5039 7.53142C70.3317 7.38024 70.2684 7.1397 70.3439 6.92333C70.4194 6.70697 70.6187 6.55804 70.8475 6.54685L75.706 6.30926L77.4744 1.67447C77.5576 1.45651 77.7667 1.3125 78 1.3125Z" fill="#FFA030"/>
<path d="M101 1.3125C101.233 1.3125 101.442 1.45651 101.526 1.67447L103.294 6.30926L108.152 6.54685C108.381 6.55804 108.581 6.70697 108.656 6.92333C108.732 7.1397 108.668 7.38024 108.496 7.53142L104.799 10.7771L106.158 15.983C106.217 16.2101 106.129 16.4504 105.937 16.5853C105.744 16.7203 105.489 16.7217 105.295 16.5887L101 13.6406L96.7051 16.5887C96.5114 16.7217 96.2556 16.7203 96.0634 16.5853C95.8712 16.4504 95.7831 16.2101 95.8425 15.983L97.2014 10.7771L93.5039 7.53142C93.3317 7.38024 93.2684 7.1397 93.3439 6.92333C93.4194 6.70697 93.6187 6.55804 93.8475 6.54685L98.706 6.30926L100.474 1.67447C100.558 1.45651 100.767 1.3125 101 1.3125Z" fill="#FFA030"/>
</svg>
